<svg id="Laag_1" data-name="Laag 1" xmlns="http://www.w3.org/2000/svg" xmlns:xlink="http://www.w3.org/1999/xlink" viewBox="0 0 345.5 82"><defs><style>.cls-1{fill:#444446;}.cls-2{fill:url(#linear-gradient);}.cls-3{fill:url(#linear-gradient-2);}.cls-4{fill:url(#linear-gradient-3);}.cls-5{fill:#636569;}.cls-6{fill:#cf295a;}</style><linearGradient id="linear-gradient" x1="284.96" y1="22.22" x2="327" y2="22.22" gradientUnits="userSpaceOnUse"><stop offset="0" stop-color="#3fa1d5"/><stop offset="1" stop-color="#c6e4de"/></linearGradient><linearGradient id="linear-gradient-2" x1="328.27" y1="0.81" x2="328.27" y2="43.63" gradientUnits="userSpaceOnUse"><stop offset="0" stop-color="#3fa1d5"/><stop offset="0.5" stop-color="#cf295a"/></linearGradient><linearGradient id="linear-gradient-3" x1="282.66" y1="43.63" x2="282.66" y2="0.81" gradientUnits="userSpaceOnUse"><stop offset="0.5" stop-color="#aed9d3"/><stop offset="1" stop-color="#2da1a5"/></linearGradient></defs><title>logo-FRMWRK-ontwikkelt</title><path class="cls-1" d="M.19,43.63V.66H29V8.78H9.87v9h17V25.9h-17V43.63Z"/><path class="cls-1" d="M48.38.16Q58.05.16,63.2,3.6t5.15,10.7a12.12,12.12,0,0,1-2.08,7.35,13.66,13.66,0,0,1-6,4.43q1.3,1.62,2.73,3.69c1,1.39,1.89,2.83,2.82,4.34s1.83,3.08,2.7,4.72,1.68,3.23,2.42,4.8H60.14l-2.4-4.28c-.81-1.44-1.64-2.85-2.49-4.21s-1.69-2.66-2.52-3.88-1.66-2.33-2.49-3.32H45.46V43.63H35.79V1.28A52.58,52.58,0,0,1,42.33.41Q45.71.15,48.38.16Zm.56,8.25c-.71,0-1.34,0-1.9.06l-1.58.12V20.25h2.73q5.46,0,7.81-1.36a4.92,4.92,0,0,0,2.36-4.65A4.74,4.74,0,0,0,56,9.74Q53.59,8.4,48.94,8.41Z"/><path class="cls-1" d="M88.56.66c.75,1.36,1.61,3.05,2.58,5.05s2,4.18,3,6.51,2.1,4.73,3.14,7.16l2.92,6.89,2.92-6.89c1-2.43,2.08-4.82,3.14-7.16s2.08-4.5,3-6.51,1.83-3.69,2.58-5h8.81q.61,4.27,1.14,9.58t.93,11q.41,5.73.75,11.5t.59,10.85h-9.43q-.18-6.26-.5-13.64t-.92-14.88l-2.49,5.76q-1.38,3.16-2.71,6.33t-2.58,6q-1.25,2.9-2.12,4.93H96.65l-2.11-4.93q-1.25-2.88-2.58-6t-2.71-6.33l-2.49-5.76q-.62,7.5-.93,14.88t-.49,13.64H75.91q.24-5.09.59-10.85t.74-11.5q.41-5.75.93-11c.35-3.54.74-6.73,1.15-9.58Z"/><path class="cls-1" d="M161.66,5.25q.74,2.54,1.64,5.73c.6,2.13,1.23,4.33,1.92,6.61s1.37,4.54,2.07,6.82,1.38,4.38,2,6.32q.81-3.16,1.65-6.88t1.59-7.69c.5-2.65,1-5.28,1.47-7.91S175,3.1,175.38.66h10.05q-2.19,10.79-5,21.89t-6.14,21.08h-8.85q-2.16-6-4.21-12.49t-4-13.12q-2,6.57-4,13.12T149,43.63H140.2q-3.3-10-6.13-21.08t-5-21.89h10.48q.61,3.66,1.37,7.59c.49,2.63,1,5.26,1.55,7.91s1.1,5.21,1.66,7.69,1.13,4.77,1.71,6.88c.74-2,1.47-4.17,2.17-6.45s1.39-4.54,2.05-6.82,1.28-4.46,1.84-6.57,1.06-4,1.52-5.64Z"/><path class="cls-1" d="M204.15.16Q213.83.16,219,3.6t5.15,10.7A12.06,12.06,0,0,1,222,21.65a13.63,13.63,0,0,1-6,4.43q1.31,1.62,2.73,3.69c1,1.39,1.89,2.83,2.82,4.34s1.83,3.08,2.7,4.72,1.67,3.23,2.42,4.8H215.91l-2.4-4.28c-.81-1.44-1.63-2.85-2.49-4.21s-1.69-2.66-2.52-3.88-1.66-2.33-2.49-3.32h-4.77V43.63h-9.68V1.28a52.49,52.49,0,0,1,6.55-.87Q201.49.15,204.15.16Zm.56,8.25q-1.05,0-1.89.06l-1.58.12V20.25H204c3.63,0,6.24-.45,7.81-1.36a4.94,4.94,0,0,0,2.36-4.65,4.74,4.74,0,0,0-2.39-4.5Q209.37,8.4,204.71,8.41Z"/><path class="cls-1" d="M258.26,43.63q-1.31-2.1-3.08-4.53c-1.18-1.63-2.45-3.26-3.82-4.91s-2.79-3.24-4.28-4.75a47.42,47.42,0,0,0-4.48-4v18.2h-9.67V.66h9.67V16.81q3.74-3.91,7.58-8.2T257.29.66h11.48q-4.38,5.22-8.83,10t-9.34,9.71a73.74,73.74,0,0,1,10,10.2,128.91,128.91,0,0,1,9.21,13Z"/><path class="cls-1" d="M257.27.81s-16.59,19.42-21.61,19.93c0,0,14.15,8,22.63,22.89h11.45a98.87,98.87,0,0,0-19.16-23S264,6.72,268.71.81Z"/><polygon class="cls-2" points="327 0.81 299.71 43.63 284.96 43.63 312.26 0.81 327 0.81"/><path class="cls-3" d="M327,.81s17.83,19.87,18.31,19.93c0,0-12.29,10.47-19.34,22.89H311.23a98.87,98.87,0,0,1,19.16-23S317,6.72,312.26.81Z"/><path class="cls-4" d="M283.93.81S266.1,20.68,265.62,20.74c0,0,12.29,10.47,19.34,22.89H299.7a98.87,98.87,0,0,0-19.16-23S293.91,6.72,298.67.81Z"/><path class="cls-5" d="M9,81.59a8,8,0,0,1-3.35-.7A8.23,8.23,0,0,1,3,79,8.4,8.4,0,0,1,1.3,76.24a9.21,9.21,0,0,1,0-6.67,8.74,8.74,0,0,1,1.74-2.76,8.32,8.32,0,0,1,2.63-1.9A7.56,7.56,0,0,1,9,64.2a7.72,7.72,0,0,1,3.33.71A8.41,8.41,0,0,1,15,66.81a8.54,8.54,0,0,1,1.73,2.76,9.28,9.28,0,0,1,0,6.67A8.57,8.57,0,0,1,15,79a8.2,8.2,0,0,1-2.64,1.88A8.1,8.1,0,0,1,9,81.59ZM2.91,73a7,7,0,0,0,.48,2.62,7.29,7.29,0,0,0,1.3,2.13,5.83,5.83,0,0,0,1.94,1.43A5.56,5.56,0,0,0,9,79.65a5.34,5.34,0,0,0,2.37-.53,6.13,6.13,0,0,0,2-1.45,6.94,6.94,0,0,0,1.32-2.14,7.45,7.45,0,0,0,0-5.26,6.92,6.92,0,0,0-1.32-2.16,6.29,6.29,0,0,0-2-1.45A5.48,5.48,0,0,0,9,66.13a5.36,5.36,0,0,0-2.35.53,6.08,6.08,0,0,0-1.93,1.47A6.9,6.9,0,0,0,3.39,70.3,7.3,7.3,0,0,0,2.91,73Z"/><path class="cls-5" d="M35.11,81.26H32.92V71.89A8.15,8.15,0,0,0,32,67.55a3,3,0,0,0-2.72-1.36,5.49,5.49,0,0,0-1.93.36,6.32,6.32,0,0,0-1.79,1,7.59,7.59,0,0,0-1.46,1.53A6.18,6.18,0,0,0,23.19,71V81.26H21V64.49h2v3.8a7.93,7.93,0,0,1,2.95-3,8,8,0,0,1,4.17-1.12,5,5,0,0,1,2.35.51A4,4,0,0,1,34,66.16a6.58,6.58,0,0,1,.84,2.29,16.16,16.16,0,0,1,.26,3Z"/><path class="cls-5" d="M47.67,80.46l-.57.26c-.25.1-.53.21-.85.32a10.18,10.18,0,0,1-1.1.29,6.53,6.53,0,0,1-1.28.13,4.66,4.66,0,0,1-1.36-.2,3,3,0,0,1-1.9-1.61,3.29,3.29,0,0,1-.29-1.41v-12H38V64.49h2.32V58.82h2.19v5.67h3.87v1.74H42.51v11.4A1.77,1.77,0,0,0,43.17,79a2.29,2.29,0,0,0,1.37.44,4,4,0,0,0,1.64-.31,7.62,7.62,0,0,0,.91-.43Z"/><path class="cls-5" d="M71.53,64.49h2.15L66.47,81.26h-1.8L61.06,72.7l-3.57,8.56H55.68L48.47,64.49H50.6L56.71,79l3.19-7.66L57,64.52h1.83L61.06,70l2.19-5.47h1.87l-2.87,6.83L65.44,79Z"/><path class="cls-5" d="M76.58,61V57.76h2.19V61Zm0,20.28V64.49h2.19V81.26Z"/><path class="cls-5" d="M95.58,81.26,89.4,72.67,85.79,76v5.24H83.6V57.76h2.19v16l9.44-9.21H97.7l-6.85,6.86L98,81.26Z"/><path class="cls-5" d="M112.65,81.26l-6.19-8.59L102.86,76v5.24h-2.19V57.76h2.19v16l9.43-9.21h2.48l-6.86,6.86L115,81.26Z"/><path class="cls-5" d="M124.11,81.59a8.09,8.09,0,0,1-6-2.6,8.82,8.82,0,0,1-1.76-2.78,9,9,0,0,1-.62-3.38,8.89,8.89,0,0,1,.62-3.34,8.6,8.6,0,0,1,1.74-2.73,8.4,8.4,0,0,1,9.37-1.87,8.05,8.05,0,0,1,2.63,1.88,8.7,8.7,0,0,1,1.7,2.74,8.83,8.83,0,0,1,.62,3.29v.51a1.22,1.22,0,0,1,0,.35H118a7.24,7.24,0,0,0,.63,2.5,6.8,6.8,0,0,0,1.37,2,6.05,6.05,0,0,0,1.91,1.3,5.62,5.62,0,0,0,2.31.47,6,6,0,0,0,1.61-.22,6.51,6.51,0,0,0,1.48-.62,5.08,5.08,0,0,0,1.22-.95,3.78,3.78,0,0,0,.84-1.24l1.9.52a5.47,5.47,0,0,1-1.1,1.69,7.31,7.31,0,0,1-1.64,1.32,7.74,7.74,0,0,1-2.06.87A9.07,9.07,0,0,1,124.11,81.59Zm6.18-9.6a6.57,6.57,0,0,0-.63-2.46,6.64,6.64,0,0,0-1.35-1.92,6.12,6.12,0,0,0-1.9-1.26,5.9,5.9,0,0,0-2.3-.45,6,6,0,0,0-2.32.45,5.94,5.94,0,0,0-1.91,1.26,6.32,6.32,0,0,0-1.33,1.93A7.28,7.28,0,0,0,118,72Z"/><path class="cls-5" d="M135.86,57.76h2.19v19.7a2,2,0,0,0,.52,1.47,1.93,1.93,0,0,0,1.45.53,4,4,0,0,0,.83-.1,5.73,5.73,0,0,0,.91-.25l.38,1.77a7.58,7.58,0,0,1-1.5.42,9.48,9.48,0,0,1-1.53.16,3.26,3.26,0,0,1-2.38-.86,3.18,3.18,0,0,1-.87-2.4Z"/><path class="cls-5" d="M152.57,80.46l-.56.26c-.25.1-.53.21-.85.32a10.18,10.18,0,0,1-1.1.29,6.63,6.63,0,0,1-1.29.13,4.64,4.64,0,0,1-1.35-.2,3,3,0,0,1-1.9-1.61,3.29,3.29,0,0,1-.29-1.41v-12h-2.32V64.49h2.32V58.82h2.19v5.67h3.87v1.74h-3.87v11.4a1.77,1.77,0,0,0,.66,1.36,2.29,2.29,0,0,0,1.37.44,4,4,0,0,0,1.64-.31,7.62,7.62,0,0,0,.91-.43Z"/><path class="cls-6" d="M159,79.53a2.22,2.22,0,0,1-.57,1.51,2.27,2.27,0,0,1-3.16,0,2.27,2.27,0,0,1,0-3,2.27,2.27,0,0,1,3.16,0A2.23,2.23,0,0,1,159,79.53Z"/></svg>